<?xml version="1.0" encoding="utf-8"?>
<!-- Generator: Adobe Illustrator 25.2.1, SVG Export Plug-In . SVG Version: 6.00 Build 0)  -->
<svg version="1.1" baseProfile="tiny" id="Layer_1" xmlns="http://www.w3.org/2000/svg" xmlns:xlink="http://www.w3.org/1999/xlink"
	 x="0px" y="0px" viewBox="0 0 355.32 102.74" overflow="visible" xml:space="preserve">
<g>
	<g>
		<path fill="#F2CF22" d="M173.63,78.84"/>
		<g>
			<g>
				<path fill="#3D3936" d="M15.37,50.58h1.14c1.1,0,1.38,0.26,1.41,0.29c0.69,0.71,0.24,1.84-0.72,3.44l-4.04,6.93l-4.73-7.95
					c-0.75-1.24-0.85-1.69-0.86-1.85c-0.12-1.13,2.74-0.98,2.74-0.98v-1.34H0v1.34l0.26,0.01c0.97,0.02,1.64,0.2,1.99,0.54
					c0.26,0.25,0.9,1.07,2.39,3.51l5.96,9.79c0,0-0.05,6.16-0.16,6.69c-0.09,0.48-0.3,0.82-0.64,1.05c-0.35,0.23-1.02,0.35-2,0.35
					H7.16v1.34h10.79v-1.34h-0.26c-1.42,0-2.02-0.17-2.28-0.31c-0.34-0.2-0.56-0.53-0.67-1.02c-0.12-0.55-0.18-6.98-0.18-6.98
					l5.36-8.94c1.02-1.69,1.87-2.88,2.52-3.53c0.63-0.61,1.46-1,2.49-1.14l0.23-0.03v-1.31h-9.79V50.58z"/>
				<path fill="#3D3936" d="M108.29,50.44h0.26c0.81,0,2.14,0.19,2.71,0.36c0.48,0.14,0.99,0.93,0.99,2.13v12.22l-3.47-4.57
					l-8.67-11.45h-7.5v1.34h0.26c1.55,0,2.15,0.13,2.38,0.24c0.3,0.14,0.53,0.49,0.68,1.04c0.16,0.61,0.25,1.83,0.25,3.64v12.77
					c0,1.77-0.09,2.45-0.16,2.7c-0.09,0.32-0.41,0.63-0.95,0.94c-0.57,0.32-1.42,0.52-2.52,0.6l-0.24,0.02v1.32h10.24V72.4
					l-1.11-0.06c-1.16-0.13-1.92-0.48-2.2-1c-0.09-0.17-0.08-1.11-0.07-2.02c0-0.38,0.01-0.79,0.01-1.22V54.23l15.03,20.04h1.16
					V54.09c0-0.99,0.08-1.7,0.22-2.1c0.14-0.37,0.47-0.69,0.99-0.97c0.55-0.29,1.33-0.48,2.31-0.56l0.24-0.02v-1.32l-10.85,0V50.44z
					"/>
			</g>
			<g>
				<path fill="#3D3936" d="M308.09,50.44h0.26c0.81,0,2.14,0.19,2.71,0.36c0.48,0.14,0.99,0.93,0.99,2.13v12.22l-3.47-4.57
					l-8.67-11.45h-7.5v1.34h0.26c1.55,0,2.15,0.13,2.38,0.24c0.3,0.14,0.53,0.49,0.68,1.04c0.16,0.61,0.25,1.83,0.25,3.64v12.77
					c0,1.77-0.09,2.45-0.16,2.7c-0.09,0.32-0.41,0.63-0.95,0.94c-0.57,0.32-1.42,0.52-2.52,0.6l-0.24,0.02v1.32h10.24V72.4
					l-1.11-0.06c-1.16-0.13-1.92-0.48-2.2-1c-0.09-0.17-0.08-1.11-0.07-2.02c0-0.38,0.01-0.79,0.01-1.22V54.23l15.03,20.04h1.16
					V54.09c0-0.99,0.08-1.7,0.22-2.1c0.14-0.37,0.47-0.69,0.99-0.97c0.55-0.29,1.33-0.48,2.31-0.56l0.24-0.02v-1.32l-10.85,0V50.44z
					"/>
				<path fill="#3D3936" d="M218.46,66.3c-0.43,1.54-0.91,2.76-1.44,3.63c-0.45,0.59-0.88,0.99-1.58,1.18
					c-1.08,0.29-3.12,0.33-4.77,0.33h-1.83c-1.29,0-2.17-0.96-2.41-2.6c0-0.27-0.01-0.54-0.01-0.85V55.38
					c0-1.98,0.06-3.24,0.18-3.74c0.11-0.46,0.3-0.76,0.6-0.92c0.22-0.12,0.79-0.26,2.2-0.26h1.33v-1.34l-12.09,0v1.34h0.79
					c1.45,0,2.02,0.15,2.24,0.28c0.3,0.17,0.49,0.49,0.59,0.98c0.11,0.55,0.16,1.78,0.16,3.66v11.81c0,2.46-0.09,3.42-0.16,3.79
					c-0.1,0.49-0.31,0.83-0.65,1.05c-0.35,0.23-1.02,0.35-2,0.35h-0.97v1.34h20.98l0.19-7.61h-1.3L218.46,66.3z"/>
				<path fill="#3D3936" d="M225.99,50.46h0.78c1.45,0,2.02,0.15,2.25,0.29c0.3,0.17,0.49,0.49,0.58,0.98
					c0.1,0.54,0.16,1.77,0.16,3.66v11.81c0,1.98-0.05,3.26-0.16,3.8c-0.09,0.48-0.3,0.82-0.64,1.05c-0.35,0.23-1.02,0.35-1.99,0.35
					h-0.97v1.34h11.54v-1.34h-0.97c-1.28,0-1.82-0.2-2.05-0.37c-0.33-0.24-0.53-0.61-0.61-1.13c-0.09-0.57-0.13-1.77-0.13-3.68
					V55.38c0-1.97,0.06-3.23,0.18-3.74c0.11-0.46,0.3-0.76,0.6-0.92c0.23-0.12,0.79-0.26,2.21-0.26h0.78v-1.34h-11.54V50.46z"/>
				<path fill="#3D3936" d="M260.9,50.49h1.24c0.24,0.02,0.47,0.04,0.68,0.08c1.02,0.22,1.06,0.67,1.08,0.94
					c0.03,0.37-0.37,1.8-1.56,4.64l-4.66,11.13l-5.74-13.42c-0.71-1.61-0.81-2.14-0.81-2.31c0-0.43,0.16-0.69,0.5-0.84
					c0.28-0.12,0.95-0.26,2.5-0.26h0.26v-1.34h-10.9v1.34l0.26,0.01c1.07,0.02,1.85,0.21,2.31,0.57c0.47,0.36,0.93,1.09,1.37,2.18
					c0.35,0.89,0.58,1.46,0.73,1.78l8.38,19.3h1.45l7.22-17.17l1.62-3.78c0.4-0.94,0.87-1.66,1.41-2.14
					c0.53-0.47,1.12-0.71,1.81-0.73l0.25-0.01v-1.33h-9.45L260.9,50.49z"/>
				<path fill="#3D3936" d="M275.56,50.46h0.78c1.45,0,2.02,0.15,2.25,0.29c0.3,0.17,0.49,0.49,0.58,0.98
					c0.1,0.54,0.16,1.77,0.16,3.66v11.81c0,1.98-0.05,3.26-0.16,3.8c-0.09,0.48-0.3,0.82-0.64,1.05c-0.35,0.23-1.02,0.35-2,0.35
					h-0.97v1.34h11.53v-1.34h-0.97c-1.28,0-1.82-0.2-2.05-0.37c-0.33-0.24-0.53-0.61-0.61-1.13c-0.09-0.57-0.13-1.81-0.13-3.68
					V55.38c0-1.97,0.06-3.23,0.18-3.74c0.11-0.46,0.3-0.76,0.6-0.92c0.23-0.12,0.79-0.26,2.21-0.26h0.78v-1.34h-11.53V50.46z"/>
			</g>
			<polygon fill="#3D3936" points="72.01,102.46 79.63,102.46 79.63,101.11 73.48,101.11 73.48,96.44 79.63,96.44 79.63,95.09 
				73.48,95.09 73.48,90.33 79.63,90.33 79.63,88.98 72.01,88.98 			"/>
			<path fill="#3D3936" d="M93.24,95.36l-2.16-0.65c-1.68-0.47-2.4-1.22-2.4-2.49c0-1.35,1.06-2.22,2.71-2.22
				c1.83,0,2.88,1.01,2.88,2.77v0.1h1.46v-0.1c0-2.52-1.65-4.08-4.31-4.08c-2.53,0-4.23,1.45-4.23,3.61c0,1.85,0.95,3.01,2.9,3.55
				l2.24,0.68c1.52,0.43,2.23,1.2,2.23,2.45c0,1.54-1.06,2.43-2.92,2.43c-2.08,0-3.38-1.21-3.38-3.17v-0.1H86.8v0.1
				c0,2.77,1.86,4.5,4.84,4.5c2.66,0,4.39-1.48,4.39-3.78C96.03,97.14,95.06,95.89,93.24,95.36z"/>
			<path fill="#3D3936" d="M109.59,95.36l-2.16-0.65c-1.68-0.47-2.4-1.22-2.4-2.49c0-1.35,1.06-2.22,2.71-2.22
				c1.83,0,2.88,1.01,2.88,2.77v0.1h1.47v-0.1c0-2.52-1.65-4.08-4.31-4.08c-2.53,0-4.23,1.45-4.23,3.61c0,1.85,0.95,3.01,2.9,3.55
				l2.24,0.68c1.52,0.43,2.23,1.2,2.23,2.45c0,1.54-1.06,2.43-2.92,2.43c-2.08,0-3.38-1.21-3.38-3.17v-0.1h-1.46v0.1
				c0,2.77,1.86,4.5,4.84,4.5c2.66,0,4.39-1.48,4.39-3.78C112.37,97.14,111.41,95.89,109.59,95.36z"/>
			<polygon fill="#3D3936" points="120.34,102.46 127.96,102.46 127.96,101.11 121.81,101.11 121.81,96.44 127.96,96.44 
				127.96,95.09 121.81,95.09 121.81,90.33 127.96,90.33 127.96,88.98 120.34,88.98 			"/>
			<polygon fill="#3D3936" points="144.5,99.91 137.97,89.03 137.94,88.98 136.42,88.98 136.42,102.46 137.85,102.46 137.85,91.53 
				144.4,102.46 145.91,102.46 145.91,88.98 144.5,88.98 			"/>
			<polygon fill="#3D3936" points="153.2,90.39 157.24,90.39 157.24,102.46 158.71,102.46 158.71,90.39 162.79,90.39 162.79,88.98 
				153.2,88.98 			"/>
			<rect x="170.04" y="88.98" fill="#3D3936" width="1.46" height="13.48"/>
			<path fill="#3D3936" d="M184.84,88.98h-1.3L179,102.33l-0.04,0.13h1.59l0.76-2.39h5.74l0.76,2.33l0.02,0.07h1.59l-4.56-13.41
				L184.84,88.98z M186.63,98.72h-4.88l2.43-7.6L186.63,98.72z"/>
			<polygon fill="#3D3936" points="198.34,88.98 196.88,88.98 196.88,102.46 204.32,102.46 204.32,101.05 198.34,101.05 			"/>
			<path fill="#3D3936" d="M228.39,88.7c-4.55,0-6.93,3.53-6.93,7.02c0,4.61,3.49,7.02,6.93,7.02c4.55,0,6.93-3.53,6.93-7.02
				C235.32,91.11,231.83,88.7,228.39,88.7z M233.8,95.72c0,2.82-1.86,5.67-5.41,5.67c-3.55,0-5.41-2.85-5.41-5.67
				s1.86-5.67,5.41-5.67C231.94,90.05,233.8,92.9,233.8,95.72z"/>
			<rect x="243.19" y="88.98" fill="#3D3936" width="1.46" height="13.48"/>
			<polygon fill="#3D3936" points="254.85,88.98 253.39,88.98 253.39,102.46 260.83,102.46 260.83,101.05 254.85,101.05 			"/>
			<path fill="#3D3936" d="M273.88,95.36l-2.16-0.65c-1.68-0.47-2.4-1.22-2.4-2.49c0-1.35,1.06-2.22,2.71-2.22
				c1.83,0,2.88,1.01,2.88,2.77v0.1h1.47v-0.1c0-2.52-1.65-4.08-4.31-4.08c-2.53,0-4.23,1.45-4.23,3.61c0,1.85,0.95,3.01,2.9,3.55
				l2.24,0.68c1.52,0.43,2.23,1.2,2.23,2.45c0,1.54-1.06,2.43-2.92,2.43c-2.08,0-3.38-1.21-3.38-3.17v-0.1h-1.46v0.1
				c0,2.77,1.85,4.5,4.84,4.5c2.66,0,4.39-1.48,4.39-3.78C276.66,97.14,275.7,95.89,273.88,95.36z"/>
			<path fill="#3D3936" d="M54.95,61.53c-0.04-3.81-1.33-6.88-3.84-9.11c-2.5-2.21-5.65-3.34-9.34-3.38h-0.13
				c-3.7,0.04-6.84,1.17-9.34,3.38c-2.51,2.23-3.8,5.29-3.84,9.1v0.27c0.04,3.81,1.33,6.87,3.84,9.1c2.5,2.21,5.65,3.34,9.34,3.38
				v0.01c0.02,0,0.04,0,0.07,0c0.02,0,0.04,0,0.07,0v-0.01c3.7-0.04,6.84-1.17,9.34-3.38c2.51-2.23,3.8-5.3,3.84-9.1V61.53z
				 M49.67,66.82c-0.69,2.23-2.38,4.57-4.62,5.23c-1.02,0.3-2.17,0.47-3.35,0.48c-1.17-0.01-2.32-0.18-3.35-0.48
				c-2.24-0.66-3.94-3-4.62-5.23c-0.45-1.46-0.68-3.16-0.69-5.09h0c0-0.03,0-0.13,0-0.16h0c0.01-1.93,0.24-3.64,0.69-5.09
				c0.69-2.23,2.38-4.57,4.62-5.23c1.02-0.3,2.17-0.47,3.35-0.48c1.17,0.01,2.32,0.18,3.35,0.48c2.24,0.66,3.94,3,4.62,5.23
				c0.45,1.46,0.68,3.16,0.69,5.09v0.16C50.35,63.66,50.12,65.37,49.67,66.82z"/>
			<path fill="#3D3936" d="M139.38,63.24v1.38h0.83c1.13,0,1.63,0.11,1.85,0.2c0.29,0.12,0.51,0.36,0.65,0.73
				c0.12,0.32,0.15,1.48,0.15,2.42c0,0.91-0.14,1.66-0.43,2.22c-0.25,0.5-0.8,0.91-1.56,1.34c-1.05,0.58-4.08,1.18-6.87,0.33h0
				c-2.21-0.65-3.84-3.03-4.48-5.09c-0.43-1.39-0.66-3.04-0.68-4.89l0-0.51c0.03-1.82,0.25-3.44,0.68-4.82
				c0.63-2.06,2.62-5.56,7.72-5.56c1.89,0,3.45,0.61,4.77,1.85c2.55,2.4,2.6,5.51,2.6,5.51h2.11v-8.57h-2.13l-0.12,0.9
				c-0.03,0.25-0.07,0.36-0.12,0.6c-2.86-2.55-7.49-2.45-7.49-2.45c-3.6,0.11-6.68,1.26-9.13,3.43c-2.52,2.23-3.84,5.3-3.91,9.1
				v0.59c0.07,3.81,1.39,6.87,3.91,9.1c2.45,2.17,5.53,3.32,9.13,3.42l0.64-0.02c1.53-0.09,3.18-0.45,4.92-1.11
				c1.44-0.54,2.62-0.8,3.49-0.82c0.4-0.01,1.03,0.12,1.03,0.12v-2.87c0-2.05,0.06-3.34,0.19-3.85c0.11-0.46,0.34-0.79,0.68-0.99
				c0.37-0.21,1.11-0.31,2.21-0.31h0.26v-1.38H139.38z"/>
			<path fill="#3D3936" d="M75.9,49.12v1.37c0,0,2.08,0.05,2.67,0.43c0.27,0.17,0.43,0.37,0.51,0.64c0.07,0.25,0.19,0.92,0.19,2.55
				v4.6c0,0,0,0,0,0v4.37c0,1.8-0.06,3.13-0.17,3.94c-0.09,0.69-0.37,1.38-0.81,2.05c-0.43,0.65-1.12,1.22-2.06,1.69
				c-0.96,0.48-2.06,0.72-3.25,0.72c-1.2,0-2.29-0.24-3.25-0.72c-0.93-0.46-1.63-1.03-2.06-1.69c-0.44-0.67-0.71-1.36-0.81-2.05
				c-0.11-0.81-0.17-2.14-0.17-3.94v-3.88h0.01v-3.82c0-1.97,0.06-3.23,0.18-3.74c0.11-0.46,0.3-0.76,0.6-0.92
				c0.22-0.12,0.79-0.26,2.21-0.26h0.74v-1.34l-11.52,0v1.34h0.81c1.45,0,2.02,0.15,2.24,0.28c0.3,0.17,0.49,0.49,0.58,0.98
				c0.11,0.54,0.16,1.77,0.16,3.66v7.49l-0.02,2.47c0,1.98,0.33,3.58,0.98,4.77c0.66,1.2,1.77,2.18,3.29,2.93
				c1.52,0.74,3.39,1.12,5.56,1.12c1.83,0,3.48-0.29,4.89-0.87c1.42-0.58,2.54-1.38,3.33-2.37c0.79-0.99,1.27-2.02,1.44-3.05
				c0.16-1.01,0.24-2.56,0.24-4.61v-8.01c0-1.45,0.06-2.42,0.17-2.91c0.1-0.45,0.39-0.86,0.87-1.23c0.73-0.55,2.49-0.68,2.49-0.68
				v-1.33L75.9,49.12z"/>
			<path fill="#3D3936" d="M337.78,63.24v1.38h0.83c1.13,0,1.63,0.11,1.85,0.2c0.29,0.12,0.51,0.36,0.65,0.73
				c0.12,0.32,0.15,1.48,0.15,2.42c0,0.91-0.14,1.66-0.43,2.22c-0.25,0.5-0.8,0.91-1.56,1.34c-1.05,0.58-4.08,1.18-6.87,0.33h0
				c-2.21-0.65-3.84-3.03-4.48-5.09c-0.43-1.39-0.66-3.04-0.68-4.89l0-0.51c0.03-1.82,0.25-3.44,0.68-4.82
				c0.63-2.06,2.62-5.56,7.72-5.56c1.89,0,3.45,0.61,4.77,1.85c2.55,2.4,2.6,5.51,2.6,5.51h2.11v-8.57h-2.13l-0.12,0.9
				c-0.03,0.25-0.07,0.36-0.12,0.6c-2.86-2.55-7.49-2.45-7.49-2.45c-3.6,0.11-6.68,1.26-9.13,3.43c-2.52,2.23-3.84,5.3-3.91,9.1
				v0.59c0.07,3.81,1.39,6.87,3.91,9.1c2.45,2.17,5.53,3.32,9.13,3.42l0.64-0.02c1.53-0.09,3.18-0.45,4.92-1.11
				c1.44-0.54,2.62-0.8,3.49-0.82c0.4-0.01,1.03,0.12,1.03,0.12v-2.87c0-2.05,0.06-3.34,0.19-3.85c0.11-0.46,0.34-0.79,0.68-0.99
				c0.37-0.21,1.11-0.31,2.21-0.31h0.26v-1.38H337.78z"/>
		</g>
		<g>
			<path fill="#F8C319" d="M164.94,71.88c0.33,3.81,1.94,6.93,4.68,8.85c2.25,1.58,4.91,1.86,7.9,0.84
				c3.72-1.27,4.86-4.59,5.18-5.96c0.44-1.9,1.05-6.41-3.83-14.08c-3.72-5.85-5.79-11.35-5.79-11.35
				C166.05,59.2,164.57,67.64,164.94,71.88z"/>
		</g>
		<g>
			<path fill="#126B37" d="M193.99,2.38l-1.21-2.29c-0.08-0.16-0.32-0.11-0.35,0.06c-1.5,9.34-5.49,12.79-9.7,16.43
				c-2.49,2.15-5.06,4.37-7.17,8c-3.85,6.62-3.85,12.72-1.65,18.57c0.06,0.15,0.25,0.15,0.34,0.03c1.39-1.96,3.5-3.86,10.02-9.8
				c10.65-9.68,10.16-18.17,10.16-18.17c1.94,12.8-9.58,19.04-18.95,31.96c-0.04,0.05-0.01,0.12,0.01,0.18
				c0.89,2.45,2.17,5.14,2.93,6.44c0.08,0.13,0.28,0.06,0.31-0.09c0.68-3.47,4.25-9.92,12.81-19.76
				C203.28,20.44,196.59,7.29,193.99,2.38z"/>
		</g>
	</g>
	<g>
		<g>
			<path fill="#3D3935" d="M355.09,50.73c-0.15-0.35-0.37-0.67-0.63-0.93c-0.26-0.26-0.58-0.48-0.93-0.63
				c-0.71-0.31-1.58-0.31-2.29,0c-0.35,0.15-0.67,0.37-0.93,0.63c-0.27,0.26-0.48,0.58-0.63,0.93c-0.16,0.35-0.23,0.74-0.23,1.14
				s0.08,0.79,0.23,1.14c0.15,0.35,0.37,0.67,0.63,0.93c0.26,0.26,0.58,0.48,0.93,0.63c0.35,0.16,0.74,0.23,1.14,0.23
				c0.4,0,0.79-0.08,1.14-0.23c0.35-0.15,0.67-0.37,0.93-0.63c0.26-0.26,0.48-0.58,0.63-0.93c0.16-0.35,0.23-0.74,0.23-1.14
				C355.32,51.47,355.24,51.08,355.09,50.73z M354.73,51.87c0,0.32-0.06,0.63-0.19,0.92c-0.12,0.28-0.29,0.54-0.5,0.75
				c-0.21,0.21-0.46,0.38-0.75,0.5c-0.57,0.24-1.27,0.24-1.84,0c-0.29-0.12-0.54-0.29-0.75-0.5c-0.21-0.21-0.38-0.46-0.5-0.75
				c-0.12-0.28-0.18-0.59-0.18-0.92c0-0.32,0.06-0.63,0.18-0.92c0.12-0.29,0.29-0.54,0.5-0.75c0.21-0.21,0.46-0.38,0.75-0.5
				c0.28-0.12,0.59-0.18,0.92-0.18c0.32,0,0.63,0.06,0.92,0.18c0.29,0.12,0.54,0.29,0.75,0.5c0.21,0.21,0.38,0.46,0.5,0.75
				C354.67,51.24,354.73,51.55,354.73,51.87z"/>
			<path fill="#3D3935" d="M353.01,52.04c0.1-0.04,0.19-0.1,0.26-0.18c0.08-0.07,0.14-0.17,0.18-0.27c0.04-0.11,0.06-0.24,0.06-0.38
				c0-0.29-0.08-0.52-0.24-0.67c-0.16-0.16-0.42-0.23-0.78-0.23h-1.23v3.14h0.53v-1.31h0.42l0.89,1.31h0.61l-0.91-1.34
				C352.88,52.09,352.95,52.07,353.01,52.04z M352.99,51.21c0,0.11-0.02,0.19-0.06,0.24c-0.04,0.06-0.1,0.1-0.17,0.13
				c-0.07,0.03-0.16,0.05-0.25,0.06c-0.1,0.01-0.2,0.01-0.3,0.01h-0.4v-0.85h0.59c0.07,0,0.15,0.01,0.23,0.02
				c0.07,0.01,0.14,0.04,0.19,0.07c0.05,0.03,0.1,0.07,0.13,0.12C352.97,51.06,352.99,51.12,352.99,51.21z"/>
		</g>
	</g>
</g>
</svg>
